TITLE "Eleven Modern Antiquities"
PERFORMER "Pugwash"
REM GENRE "Rock"
REM DATE "2008"
REM DISCID 9708CC0B
FILE "Eleven Modern Antiquities.flac" WAVE
  TRACK 01 AUDIO
    TITLE "Take Me Away"
    PERFORMER "Pugwash"
    INDEX 01 00:00:00
  TRACK 02 AUDIO
    TITLE "Cluster Bomb"
    PERFORMER "Pugwash"
    INDEX 01 03:35:37
  TRACK 03 AUDIO
    TITLE "Here"
    PERFORMER "Pugwash"
    INDEX 01 06:21:72
  TRACK 04 AUDIO
    TITLE "It's So Fine"
    PERFORMER "Pugwash"
    INDEX 01 09:36:42
  TRACK 05 AUDIO
    TITLE "Song for You"
    PERFORMER "Pugwash"
    INDEX 01 13:01:52
  TRACK 06 AUDIO
    TITLE "My Genius"
    PERFORMER "Pugwash"
    INDEX 01 15:53:25
  TRACK 07 AUDIO
    TITLE "Limerance"
    PERFORMER "Pugwash"
    INDEX 01 19:59:45
  TRACK 08 AUDIO
    TITLE "Your Friend"
    PERFORMER "Pugwash"
    INDEX 01 23:46:17
  TRACK 09 AUDIO
    TITLE "The Cannon and the Bell"
    PERFORMER "Pugwash"
    INDEX 01 26:56:00
  TRACK 10 AUDIO
    TITLE "At the Sea"
    PERFORMER "Pugwash"
    INDEX 01 28:44:10
  TRACK 11 AUDIO
    TITLE "Landsdowne Valley"
    PERFORMER "Pugwash"
    INDEX 01 32:03:37
